<svg id="Capa_1" data-name="Capa 1" xmlns="http://www.w3.org/2000/svg" viewBox="0 0 396 60.02"><defs><style>.cls-1{fill:#fff;}</style></defs><path class="cls-1" d="M61.26,16.12c0-1.88,0-2.1-.82-2.19l-.57-.08c-.17-.09-.17-.5,0-.63,1.23-.09,2.68-.17,4.3-.17a9.46,9.46,0,0,1,3.41.49,3.31,3.31,0,0,1,2.27,3.22c0,3-3.07,3.5-4.06,3.5a5.62,5.62,0,0,1-.59,0,.37.37,0,0,1-.06-.51c1.54-.48,1.86-1.58,1.86-2.95s-.71-2.87-2.38-2.87c-.69,0-.73.2-.73.95v7.85c0,1.73.11,1.88,1,2l.6.1a.41.41,0,0,1,0,.63c-1,0-2-.06-2.85-.06s-1.79,0-2.79.06c-.21-.11-.24-.54,0-.63l.52-.1c.84-.15.95-.28.95-2Z" transform="translate(0 0.01)"/><path class="cls-1" d="M69.88,21.82a4.06,4.06,0,0,1,4.28-4.13,3.87,3.87,0,0,1,4.17,4c0,2.72-2,4-4.28,4S69.9,24.39,69.88,21.82Zm2.68-.41c0,1.95.61,3.39,1.69,3.39s1.42-1.21,1.4-2.89-.54-3.37-1.6-3.37C73.23,18.54,72.56,19.38,72.56,21.41Z" transform="translate(0 0.01)"/><path class="cls-1" d="M87.67,22.34c0,1.75.08,2.18.43,2.18a2,2,0,0,0,.8-.15.61.61,0,0,1,0,.8,13.76,13.76,0,0,0-3.35.67.36.36,0,0,1-.32-.26l.06-.58c0-.15-.09-.2-.17-.15a4,4,0,0,1-2,.8A3.51,3.51,0,0,1,79.58,22,4.2,4.2,0,0,1,84,17.69a5.56,5.56,0,0,1,1.06.09.35.35,0,0,0,.18-.35V15c0-.74,0-.94-.37-1.17l-.32-.18a.44.44,0,0,1,0-.56,19.22,19.22,0,0,0,2.85-1,.38.38,0,0,1,.32.13c0,.76-.06,1.54-.06,2.71Zm-2.42-2.48a1.25,1.25,0,0,0-1.19-1.32c-1,0-1.88,1-1.88,2.94,0,1.23.56,2.93,2.09,2.93a1.43,1.43,0,0,0,.76-.23c.2-.13.22-.37.22-.7Z" transform="translate(0 0.01)"/><path class="cls-1" d="M92.44,21c-.43,0-.47,0-.47.34a2.6,2.6,0,0,0,2.63,2.75,1.83,1.83,0,0,0,1.73-1,.42.42,0,0,1,.48.43,3.57,3.57,0,0,1-3.26,2.12,3.65,3.65,0,0,1-3.87-3.79,4,4,0,0,1,4-4.17,2.69,2.69,0,0,1,3,2.68c0,.35-.09.61-.67.61Zm1.23-.82a1.4,1.4,0,0,0,.76-.17c.09,0,.13-.24.13-.42a.93.93,0,0,0-1-1,1.53,1.53,0,0,0-1.45,1.34c0,.26.26.28.86.28Z" transform="translate(0 0.01)"/><path class="cls-1" d="M98.56,20.46c0-.74,0-1-.35-1.19L98,19.1a.45.45,0,0,1,0-.56,12.63,12.63,0,0,0,2.71-1.11.38.38,0,0,1,.34.16c0,.38-.07.64-.07.8s0,.19.18.23c.5-.32,1-.93,1.83-.93a1,1,0,0,1,1,1.1,1.12,1.12,0,0,1-1.19,1.2,1.06,1.06,0,0,1-.73-.33c-.43-.35-.59-.37-.71-.37s-.35.41-.35,1.11v2.87c0,1.3.08,1.45.69,1.51l.6,0a.54.54,0,0,1,0,.66c-.9,0-1.64-.06-2.52-.06s-1.58,0-2.19.06a.51.51,0,0,1,0-.66l.35,0c.62-.06.69-.23.69-1.53Z" transform="translate(0 0.01)"/><path class="cls-1" d="M111.05,15.83c0-1.75-.11-1.88-1-2l-.7-.12a.53.53,0,0,1,0-.65c1.19,0,2.12.06,3,.06s1.83,0,2.79-.06a.53.53,0,0,1,0,.65l-.48.1c-.86.17-1,.28-1,2v6.73a11.08,11.08,0,0,1-.43,3.6,4.52,4.52,0,0,1-4.35,3c-.52,0-1.41-.11-1.41-.74a1.75,1.75,0,0,1,.48-1.08.72.72,0,0,1,.52-.24,1.82,1.82,0,0,1,1,.46,1.91,1.91,0,0,0,.82.47c.43,0,.52-.88.59-1.53a33.43,33.43,0,0,0,.17-3.65Z" transform="translate(0 0.01)"/><path class="cls-1" d="M123.87,22.94c0,1.09.06,1.58.51,1.58a2.63,2.63,0,0,0,.74-.15c.17,0,.19.71-.05.8a13.25,13.25,0,0,0-3.45.67.25.25,0,0,1-.22-.22,4.7,4.7,0,0,0,.06-.67.19.19,0,0,0-.21-.19,4.21,4.21,0,0,1-2.53.89c-1.55,0-2.18-.8-2.18-2.38V20.11c0-1-.11-1.08-.56-1.21l-.24-.08a.51.51,0,0,1,.08-.65,12.64,12.64,0,0,0,1.8-.17,11.49,11.49,0,0,0,1.17-.31c.12,0,.21.13.23.22,0,.47-.06,1-.06,1.64v3.07c0,.89.13,1.67,1.32,1.67a1.52,1.52,0,0,0,1-.35.79.79,0,0,0,.21-.56V19.86c0-.74-.13-.91-.8-1l-.27,0c-.14-.13-.13-.57.1-.65.67,0,1.34-.11,1.93-.18s1.21-.3,1.32-.3.17.09.19.22c0,.34-.06.95-.06,1.64Z" transform="translate(0 0.01)"/><path class="cls-1" d="M134,22.34c0,1.75.08,2.18.43,2.18a2,2,0,0,0,.8-.15.63.63,0,0,1,0,.8,13.49,13.49,0,0,0-3.35.67.36.36,0,0,1-.32-.26l.06-.58c0-.15-.1-.2-.17-.15a4,4,0,0,1-2,.8A3.52,3.52,0,0,1,125.9,22a4.21,4.21,0,0,1,4.43-4.3,5.68,5.68,0,0,1,1.07.09.35.35,0,0,0,.18-.35V15c0-.74,0-.94-.37-1.17l-.32-.18a.43.43,0,0,1,0-.56,19.22,19.22,0,0,0,2.85-1,.38.38,0,0,1,.32.13c0,.76-.06,1.54-.06,2.71Zm-2.42-2.48a1.25,1.25,0,0,0-1.19-1.32c-.95,0-1.88,1-1.88,2.94,0,1.23.56,2.93,2.08,2.93a1.44,1.44,0,0,0,.77-.23c.2-.13.22-.37.22-.7Z" transform="translate(0 0.01)"/><path class="cls-1" d="M139.4,23.23c0,1.31.07,1.47.69,1.53l.35,0a.5.5,0,0,1,0,.65c-.65,0-1.38-.06-2.23-.06s-1.62,0-2.23.06a.5.5,0,0,1,0-.65l.35,0c.62-.06.69-.22.69-1.53V20.42c0-.74,0-1-.35-1.19l-.26-.17a.41.41,0,0,1,0-.55,15.46,15.46,0,0,0,2.75-1.08.36.36,0,0,1,.33.16c0,.56,0,1.38,0,2.22Zm.15-8.41a1.33,1.33,0,0,1-1.4,1.36,1.23,1.23,0,0,1-1.3-1.32,1.35,1.35,0,0,1,1.39-1.36A1.27,1.27,0,0,1,139.55,14.82Z" transform="translate(0 0.01)"/><path class="cls-1" d="M148,18a1.15,1.15,0,0,1,.39,1c0,.56-.26,1.06-.49,1.06a.48.48,0,0,1-.29-.09,2.84,2.84,0,0,0-1.92-1.4c-1.21,0-1.86,1.38-1.86,2.66a2.76,2.76,0,0,0,2.66,3,1.75,1.75,0,0,0,1.66-.91.42.42,0,0,1,.48.41,3.53,3.53,0,0,1-3.29,2,3.69,3.69,0,0,1-4-3.76c0-2.64,2.14-4.2,4.65-4.2A6.65,6.65,0,0,1,148,18Z" transform="translate(0 0.01)"/><path class="cls-1" d="M152.65,23.23c0,1.31.08,1.47.69,1.53l.35,0a.5.5,0,0,1,0,.65c-.65,0-1.37-.06-2.23-.06s-1.62,0-2.23.06a.5.5,0,0,1,0-.65l.35,0c.62-.06.69-.22.69-1.53V20.42c0-.74,0-1-.35-1.19l-.26-.17a.44.44,0,0,1,0-.55,15.46,15.46,0,0,0,2.75-1.08.39.39,0,0,1,.34.16c0,.56-.06,1.38-.06,2.22Zm.15-8.41a1.33,1.33,0,0,1-1.4,1.36,1.24,1.24,0,0,1-1.3-1.32,1.35,1.35,0,0,1,1.4-1.36A1.27,1.27,0,0,1,152.8,14.82Z" transform="translate(0 0.01)"/><path class="cls-1" d="M161,22.84c-.07,1.27.46,1.6.84,1.6a1.28,1.28,0,0,0,.7-.22.36.36,0,0,1,.23.43,3,3,0,0,1-2.16,1A2.18,2.18,0,0,1,159,25c-.14-.11-.21-.15-.3-.15s-.21.08-.39.21a2.79,2.79,0,0,1-1.58.59,1.93,1.93,0,0,1-2.09-1.95c0-.95.58-1.53,1.94-1.94.7-.22,1.22-.37,1.75-.52.33-.09.42-.22.44-.37s0-.41,0-.63c0-.71-.28-1.6-1.08-1.6-.45,0-.84.26-1,1.06a.81.81,0,0,1-.31.59,3.11,3.11,0,0,1-1.34.43c-.32,0-.43-.2-.43-.46a2.2,2.2,0,0,1,.89-1.44,5.31,5.31,0,0,1,3.13-1.13c1.56,0,2.47.78,2.38,2.7Zm-2.23-.48c0-.3,0-.35-.13-.34-.84.12-1.57.43-1.57,1.31a1.06,1.06,0,0,0,.95,1.11c.58,0,.69-.33.71-.91Z" transform="translate(0 0.01)"/><path class="cls-1" d="M163.84,15c0-.74,0-.94-.37-1.17l-.32-.18a.45.45,0,0,1,0-.56,20.07,20.07,0,0,0,2.85-1,.37.37,0,0,1,.31.13c0,.76-.05,1.54-.05,2.71v8.3c0,1.31.07,1.46.72,1.53l.32,0a.5.5,0,0,1,0,.65c-.61,0-1.39-.06-2.23-.06s-1.58,0-2.24.06a.51.51,0,0,1,0-.65l.35,0c.61-.06.69-.22.69-1.53Z" transform="translate(0 0.01)"/><path class="cls-1" d="M180.92,22.34c0,1.75.08,2.18.43,2.18a2,2,0,0,0,.8-.15.61.61,0,0,1,0,.8,13.76,13.76,0,0,0-3.35.67.36.36,0,0,1-.32-.26l.06-.58c0-.15-.09-.2-.17-.15a4,4,0,0,1-2,.8A3.51,3.51,0,0,1,172.83,22a4.2,4.2,0,0,1,4.43-4.3,5.56,5.56,0,0,1,1.06.09.35.35,0,0,0,.18-.35V15c0-.74,0-.94-.37-1.17l-.31-.18a.43.43,0,0,1,0-.56,19.13,19.13,0,0,0,2.84-1,.37.37,0,0,1,.32.13c0,.76-.06,1.54-.06,2.71Zm-2.42-2.48a1.25,1.25,0,0,0-1.19-1.32c-.95,0-1.88,1-1.88,2.94,0,1.23.56,2.93,2.09,2.93a1.43,1.43,0,0,0,.76-.23c.21-.13.22-.37.22-.7Z" transform="translate(0 0.01)"/><path class="cls-1" d="M185.69,21c-.43,0-.47,0-.47.34a2.6,2.6,0,0,0,2.63,2.75,1.83,1.83,0,0,0,1.73-1,.42.42,0,0,1,.48.43,3.56,3.56,0,0,1-3.25,2.12,3.65,3.65,0,0,1-3.87-3.79,4,4,0,0,1,4-4.17,2.69,2.69,0,0,1,3,2.68c0,.35-.09.61-.67.61Zm1.23-.82a1.38,1.38,0,0,0,.76-.17c.09,0,.13-.24.13-.42a.93.93,0,0,0-1-1,1.53,1.53,0,0,0-1.45,1.34c0,.26.26.28.86.28Z" transform="translate(0 0.01)"/><path class="cls-1" d="M196.23,15c0-.74,0-.94-.38-1.17l-.31-.18a.45.45,0,0,1,0-.56,20,20,0,0,0,2.84-1,.38.38,0,0,1,.32.13c0,.76-.06,1.54-.06,2.71v8.3c0,1.31.08,1.46.73,1.53l.32,0a.5.5,0,0,1,0,.65c-.62,0-1.4-.06-2.24-.06s-1.58,0-2.23.06a.5.5,0,0,1,0-.65l.36,0c.61-.06.69-.22.69-1.53Z" transform="translate(0 0.01)"/><path class="cls-1" d="M207,22.84c-.07,1.27.47,1.6.84,1.6a1.33,1.33,0,0,0,.71-.22.34.34,0,0,1,.22.43,3,3,0,0,1-2.16,1A2.18,2.18,0,0,1,205,25a.47.47,0,0,0-.3-.15c-.09,0-.2.08-.39.21a2.74,2.74,0,0,1-1.58.59,1.93,1.93,0,0,1-2.09-1.95c0-.95.58-1.53,1.94-1.94l1.75-.52c.33-.09.43-.22.45-.37s0-.41,0-.63c0-.71-.28-1.6-1.08-1.6-.44,0-.83.26-1,1.06a.82.82,0,0,1-.32.59,3.11,3.11,0,0,1-1.34.43c-.32,0-.43-.2-.43-.46a2.24,2.24,0,0,1,.89-1.44,5.34,5.34,0,0,1,3.13-1.13c1.56,0,2.48.78,2.38,2.7Zm-2.23-.48c0-.3,0-.35-.13-.34-.84.12-1.56.43-1.56,1.31a1.05,1.05,0,0,0,.95,1.11c.57,0,.68-.33.7-.91Z" transform="translate(0 0.01)"/><path class="cls-1" d="M225,13.29a24.62,24.62,0,0,0,.23,2.91.52.52,0,0,1-.71.13,3.38,3.38,0,0,0-3.5-2.66c-2.07,0-4.28,1.77-4.28,5.47s2.14,5.69,4.37,5.69a4,4,0,0,0,3.8-2.88.54.54,0,0,1,.71.13,8.23,8.23,0,0,1-.71,2.92,13.87,13.87,0,0,1-3.78.69,8.53,8.53,0,0,1-5-1.41,5.83,5.83,0,0,1-2.37-4.88A6.15,6.15,0,0,1,216,14.47a8.14,8.14,0,0,1,5.16-1.66A23.65,23.65,0,0,1,225,13.29Z" transform="translate(0 0.01)"/><path class="cls-1" d="M229.65,23.23c0,1.31.08,1.47.69,1.53l.36,0a.5.5,0,0,1,0,.65c-.65,0-1.38-.06-2.24-.06s-1.62,0-2.23.06a.5.5,0,0,1,0-.65l.36,0c.61-.06.68-.22.68-1.53V20.42c0-.74,0-1-.35-1.19l-.26-.17a.44.44,0,0,1,0-.55,14.88,14.88,0,0,0,2.75-1.08.38.38,0,0,1,.34.16c0,.56-.06,1.38-.06,2.22Zm.15-8.41a1.33,1.33,0,0,1-1.39,1.36,1.24,1.24,0,0,1-1.31-1.32,1.36,1.36,0,0,1,1.4-1.36A1.27,1.27,0,0,1,229.8,14.82Z" transform="translate(0 0.01)"/><path class="cls-1" d="M239.85,22.94c0,1.09.06,1.58.51,1.58a2.63,2.63,0,0,0,.74-.15c.17,0,.19.71-.06.8a13.23,13.23,0,0,0-3.44.67.25.25,0,0,1-.22-.22,4.49,4.49,0,0,0,.05-.67.19.19,0,0,0-.2-.19,4.21,4.21,0,0,1-2.53.89c-1.55,0-2.18-.8-2.18-2.38V20.11c0-1-.11-1.08-.56-1.21l-.24-.08a.51.51,0,0,1,.08-.65,12.64,12.64,0,0,0,1.8-.17,11.49,11.49,0,0,0,1.17-.31c.11,0,.21.13.23.22,0,.47-.06,1-.06,1.64v3.07c0,.89.13,1.67,1.32,1.67a1.52,1.52,0,0,0,1-.35.78.78,0,0,0,.2-.56V19.86c0-.74-.13-.91-.8-1l-.26,0c-.15-.13-.13-.57.1-.65.67,0,1.34-.11,1.93-.18s1.21-.3,1.32-.3.17.09.19.22c0,.34-.06.95-.06,1.64Z" transform="translate(0 0.01)"/><path class="cls-1" d="M250,22.34c0,1.75.07,2.18.43,2.18a2,2,0,0,0,.8-.15.63.63,0,0,1,0,.8,13.49,13.49,0,0,0-3.35.67.36.36,0,0,1-.32-.26l.06-.58c0-.15-.1-.2-.17-.15a4,4,0,0,1-2,.8A3.52,3.52,0,0,1,241.88,22a4.21,4.21,0,0,1,4.43-4.3,5.48,5.48,0,0,1,1.06.09.36.36,0,0,0,.19-.35V15c0-.74,0-.94-.37-1.17l-.32-.18a.43.43,0,0,1,0-.56,19.22,19.22,0,0,0,2.85-1,.35.35,0,0,1,.31.13c0,.76-.05,1.54-.05,2.71Zm-2.42-2.48a1.41,1.41,0,0,0-.13-.63,1.29,1.29,0,0,0-1.06-.69c-1,0-1.88,1-1.88,2.94,0,1.23.56,2.93,2.08,2.93a1.49,1.49,0,0,0,.77-.23c.2-.13.22-.37.22-.7Z" transform="translate(0 0.01)"/><path class="cls-1" d="M258.3,22.84c-.07,1.27.46,1.6.84,1.6a1.28,1.28,0,0,0,.7-.22.36.36,0,0,1,.23.43,3,3,0,0,1-2.16,1,2.18,2.18,0,0,1-1.56-.65.47.47,0,0,0-.3-.15c-.1,0-.21.08-.39.21a2.8,2.8,0,0,1-1.59.59A1.93,1.93,0,0,1,252,23.7c0-.95.58-1.53,1.94-1.94.7-.22,1.22-.37,1.75-.52.33-.09.42-.22.44-.37s0-.41,0-.63c0-.71-.28-1.6-1.08-1.6-.45,0-.84.26-1,1.06a.85.85,0,0,1-.31.59,3.11,3.11,0,0,1-1.34.43c-.32,0-.43-.2-.43-.46a2.2,2.2,0,0,1,.89-1.44,5.31,5.31,0,0,1,3.13-1.13c1.56,0,2.47.78,2.38,2.7Zm-2.23-.48c0-.3,0-.35-.13-.34-.84.12-1.57.43-1.57,1.31a1.06,1.06,0,0,0,.95,1.11c.58,0,.69-.33.71-.91Z" transform="translate(0 0.01)"/><path class="cls-1" d="M268.41,22.34c0,1.75.07,2.18.42,2.18a2,2,0,0,0,.8-.15.61.61,0,0,1,0,.8,13.76,13.76,0,0,0-3.35.67.34.34,0,0,1-.31-.26L266,25c0-.15-.09-.2-.17-.15a4,4,0,0,1-2,.8A3.51,3.51,0,0,1,260.31,22a4.2,4.2,0,0,1,4.43-4.3,5.48,5.48,0,0,1,1.06.09.36.36,0,0,0,.19-.35V15c0-.74,0-.94-.38-1.17l-.31-.18a.43.43,0,0,1,0-.56,19.64,19.64,0,0,0,2.85-1,.35.35,0,0,1,.31.13c0,.76,0,1.54,0,2.71ZM266,19.86a1.41,1.41,0,0,0-.13-.63,1.32,1.32,0,0,0-1.06-.69c-.95,0-1.88,1-1.88,2.94,0,1.23.55,2.93,2.08,2.93a1.43,1.43,0,0,0,.76-.23c.21-.13.23-.37.23-.7Z" transform="translate(0 0.01)"/><path class="cls-1" d="M283.05,22.34c0,1.75.08,2.18.43,2.18a2,2,0,0,0,.8-.15.61.61,0,0,1,0,.8,13.76,13.76,0,0,0-3.35.67.36.36,0,0,1-.32-.26l.06-.58c0-.15-.09-.2-.17-.15a4,4,0,0,1-2,.8A3.51,3.51,0,0,1,275,22a4.2,4.2,0,0,1,4.43-4.3,5.56,5.56,0,0,1,1.06.09.35.35,0,0,0,.18-.35V15c0-.74,0-.94-.37-1.17l-.31-.18a.43.43,0,0,1,0-.56,19.13,19.13,0,0,0,2.84-1,.37.37,0,0,1,.32.13c0,.76-.06,1.54-.06,2.71Zm-2.42-2.48a1.25,1.25,0,0,0-1.19-1.32c-.95,0-1.88,1-1.88,2.94,0,1.23.56,2.93,2.09,2.93a1.43,1.43,0,0,0,.76-.23c.21-.13.22-.37.22-.7Z" transform="translate(0 0.01)"/><path class="cls-1" d="M287.82,21c-.43,0-.47,0-.47.34A2.6,2.6,0,0,0,290,24.07a1.83,1.83,0,0,0,1.73-1,.42.42,0,0,1,.48.43,3.56,3.56,0,0,1-3.25,2.12,3.65,3.65,0,0,1-3.87-3.79,4,4,0,0,1,4-4.17,2.69,2.69,0,0,1,3,2.68c0,.35-.09.61-.67.61Zm1.23-.82a1.38,1.38,0,0,0,.76-.17c.09,0,.13-.24.13-.42a.93.93,0,0,0-1-1,1.53,1.53,0,0,0-1.45,1.34c0,.26.26.28.86.28Z" transform="translate(0 0.01)"/><path class="cls-1" d="M299.06,16.14c0-1.88,0-2.06-.82-2.17l-.5-.08c-.17-.09-.2-.65.08-.67,1.41-.09,2.77-.17,4.63-.17a7.61,7.61,0,0,1,3.8.69,2.62,2.62,0,0,1,1.28,2.37,2.43,2.43,0,0,1-1.9,2.32c-.18,0-.37.11-.37.21s.09.11.26.15a3.21,3.21,0,0,1,.56,6.21,11.64,11.64,0,0,1-3.71.47c-.66,0-1.37-.08-1.91-.08-.91,0-1.83,0-2.89.06-.15-.11-.15-.6,0-.65l.54-.11c.84-.17.95-.3.95-2ZM301.63,18c0,.48,0,.52,1,.52a2,2,0,0,0,2.19-2.14,2.18,2.18,0,0,0-2.29-2.42c-.87,0-.89.15-.89,1Zm0,4.3c0,1.45.19,2.36,1.64,2.36s2.1-1.06,2.1-2.57a2.52,2.52,0,0,0-2.72-2.75c-1,0-1,0-1,.76Z" transform="translate(0 0.01)"/><path class="cls-1" d="M317.4,22.94c0,1.09.05,1.58.5,1.58a2.63,2.63,0,0,0,.74-.15c.17,0,.19.71-.05.8a13.25,13.25,0,0,0-3.45.67.25.25,0,0,1-.22-.22A4.7,4.7,0,0,0,315,25a.19.19,0,0,0-.21-.19,4.18,4.18,0,0,1-2.53.89c-1.54,0-2.18-.8-2.18-2.38V20.11c0-1-.11-1.08-.55-1.21l-.25-.08a.51.51,0,0,1,.08-.65,12.64,12.64,0,0,0,1.8-.17c.56-.09,1.1-.31,1.18-.31s.2.13.22.22c0,.47-.06,1-.06,1.64v3.07c0,.89.13,1.67,1.32,1.67a1.49,1.49,0,0,0,1-.35.79.79,0,0,0,.21-.56V19.86c0-.74-.13-.91-.8-1l-.26,0c-.15-.13-.13-.57.09-.65.67,0,1.34-.11,1.93-.18s1.21-.3,1.33-.3.16.09.18.22c0,.34-.05.95-.05,1.64Z" transform="translate(0 0.01)"/><path class="cls-1" d="M322.2,21c-.43,0-.47,0-.47.34a2.6,2.6,0,0,0,2.63,2.75,1.83,1.83,0,0,0,1.73-1,.42.42,0,0,1,.48.43,3.57,3.57,0,0,1-3.26,2.12,3.65,3.65,0,0,1-3.87-3.79,4,4,0,0,1,4-4.17,2.69,2.69,0,0,1,3,2.68c0,.35-.09.61-.67.61Zm1.23-.82a1.38,1.38,0,0,0,.76-.17c.09,0,.13-.24.13-.42a.93.93,0,0,0-1-1,1.53,1.53,0,0,0-1.45,1.34c0,.26.26.28.86.28Z" transform="translate(0 0.01)"/><path class="cls-1" d="M328.32,20.42c0-.74,0-1-.35-1.19l-.26-.17a.44.44,0,0,1,0-.55,14.88,14.88,0,0,0,2.75-1.08.39.39,0,0,1,.34.16c0,.27-.06.71-.06.84s0,.15.1.15a1.5,1.5,0,0,0,.35-.15,4.58,4.58,0,0,1,2.14-.74A2.19,2.19,0,0,1,335.66,20v3.2c0,1.31.07,1.46.74,1.53l.3,0a.5.5,0,0,1,0,.65c-.58,0-1.36-.06-2.25-.06s-1.47,0-2,.06a.5.5,0,0,1,0-.65l.33-.06c.43-.07.51-.2.51-1.23V20.37a1.2,1.2,0,0,0-1.31-1.32,1.32,1.32,0,0,0-1,.44,1.1,1.1,0,0,0-.15.69v3.33c0,1,.08,1.19.54,1.25l.3,0a.5.5,0,0,1,0,.65c-.58,0-1.17-.06-2.06-.06s-1.55,0-2.2.06a.5.5,0,0,1,0-.65l.3,0c.67-.07.74-.22.74-1.53Z" transform="translate(0 0.01)"/><path class="cls-1" d="M337.67,21.82A4.06,4.06,0,0,1,342,17.69a3.87,3.87,0,0,1,4.17,4c0,2.72-2,4-4.28,4S337.69,24.39,337.67,21.82Zm2.68-.41c0,1.95.61,3.39,1.69,3.39s1.41-1.21,1.4-2.89-.54-3.37-1.6-3.37C341,18.54,340.35,19.38,340.35,21.41Z" transform="translate(0 0.01)"/><path class="cls-1" d="M347.53,25.08a5.12,5.12,0,0,1-.3-2.11.46.46,0,0,1,.64,0c.24.76.95,1.86,1.9,1.86a.9.9,0,0,0,1-1c0-.69-.59-1.08-1.23-1.4-1.11-.55-1.91-1.23-1.91-2.34,0-1.62,1.36-2.4,3-2.4a4.48,4.48,0,0,1,2,.39,5.28,5.28,0,0,1,.28,1.86c-.08.2-.54.2-.65.07-.38-1.08-.84-1.47-1.46-1.47a.84.84,0,0,0-.93.82c0,.43.36.78,1.19,1.19,1.27.62,2,1.4,2,2.61,0,1.66-1.43,2.49-3.18,2.49A3.71,3.71,0,0,1,347.53,25.08Z" transform="translate(0 0.01)"/><path class="cls-1" d="M362.05,21.19c-.45,0-.5,0-.61.37l-.69,2.16a2.2,2.2,0,0,0-.13.67c0,.11.15.22.67.31l.56.1c.11.13.14.56,0,.65-.65,0-1.4,0-2.18-.06-.63,0-1.06.06-1.92.06-.2-.11-.18-.5,0-.65l.5-.06a1.27,1.27,0,0,0,1.14-.93c.31-.74.65-1.64,1.15-3l1.67-4.54a6.9,6.9,0,0,0,.73-2.36,3.83,3.83,0,0,0,1.62-1.12c.24,0,.35.09.43.37.15.54.37,1.23.83,2.55l2.54,7.3c.39,1.12.55,1.54,1.24,1.66l.71.11c.11.09.15.54,0,.65-.89,0-1.9-.06-2.87-.06s-1.65,0-2.51.06a.42.42,0,0,1,0-.65l.59-.1c.43-.07.5-.2.5-.31a8.09,8.09,0,0,0-.35-1.27l-.5-1.6c-.1-.3-.24-.33-.9-.33Zm2-1c.43,0,.52-.06.37-.54l-.48-1.51c-.26-.8-.5-1.56-.67-1.95a21.6,21.6,0,0,0-.76,2.05L362,19.64c-.17.5-.07.56.39.56Z" transform="translate(0 0.01)"/><path class="cls-1" d="M373.79,23.23c0,1.31.08,1.47.69,1.53l.36,0a.5.5,0,0,1,0,.65c-.65,0-1.38-.06-2.24-.06s-1.61,0-2.23.06a.5.5,0,0,1,0-.65l.36,0c.61-.06.69-.22.69-1.53V20.42c0-.74,0-1-.36-1.19l-.26-.17a.44.44,0,0,1,0-.55,15.29,15.29,0,0,0,2.76-1.08.37.37,0,0,1,.33.16c0,.56-.06,1.38-.06,2.22Zm.15-8.41a1.33,1.33,0,0,1-1.39,1.36,1.24,1.24,0,0,1-1.31-1.32,1.36,1.36,0,0,1,1.4-1.36A1.27,1.27,0,0,1,373.94,14.82Z" transform="translate(0 0.01)"/><path class="cls-1" d="M376.79,20.46c0-.74,0-1-.35-1.19l-.26-.17a.45.45,0,0,1,0-.56,12.63,12.63,0,0,0,2.71-1.11.38.38,0,0,1,.34.16c0,.38-.07.64-.07.8s0,.19.18.23c.5-.32,1-.93,1.83-.93a1,1,0,0,1,1,1.1A1.12,1.12,0,0,1,381,20a1.06,1.06,0,0,1-.73-.33c-.43-.35-.59-.37-.71-.37s-.35.41-.35,1.11v2.87c0,1.3.08,1.45.69,1.51l.6,0a.54.54,0,0,1,0,.66c-.9,0-1.64-.06-2.52-.06s-1.58,0-2.19.06a.51.51,0,0,1,0-.66l.35,0c.62-.06.69-.23.69-1.53Z" transform="translate(0 0.01)"/><path class="cls-1" d="M385.2,21c-.42,0-.46,0-.46.34a2.59,2.59,0,0,0,2.62,2.75,1.83,1.83,0,0,0,1.73-1,.43.43,0,0,1,.49.43,3.57,3.57,0,0,1-3.26,2.12,3.65,3.65,0,0,1-3.87-3.79,4,4,0,0,1,4-4.17,2.69,2.69,0,0,1,3,2.68c0,.35-.1.61-.67.61Zm1.23-.82a1.43,1.43,0,0,0,.77-.17c.09,0,.13-.24.13-.42a.94.94,0,0,0-1-1,1.53,1.53,0,0,0-1.45,1.34c0,.26.26.28.85.28Z" transform="translate(0 0.01)"/><path class="cls-1" d="M390.51,25.08a4.8,4.8,0,0,1-.3-2.11.44.44,0,0,1,.63,0c.25.76,1,1.86,1.9,1.86a.9.9,0,0,0,1-1c0-.69-.59-1.08-1.23-1.4-1.11-.55-1.91-1.23-1.91-2.34,0-1.62,1.35-2.4,2.95-2.4a4.54,4.54,0,0,1,2,.39,5.3,5.3,0,0,1,.27,1.86c-.07.2-.53.2-.65.07-.37-1.08-.83-1.47-1.45-1.47a.84.84,0,0,0-.93.82c0,.43.36.78,1.19,1.19,1.27.62,2.05,1.4,2.05,2.61,0,1.66-1.43,2.49-3.18,2.49A3.71,3.71,0,0,1,390.51,25.08Z" transform="translate(0 0.01)"/><path class="cls-1" d="M62.3,36.11a8,8,0,0,1,5-1.58,14.43,14.43,0,0,1,3.29.45,1.31,1.31,0,0,0,.52.07c0,.43.12,1.6.26,2.74a.39.39,0,0,1-.5,0c-.28-1.27-1.12-2.72-3.81-2.72-2.85,0-5.27,1.8-5.27,5.66s2.47,6.06,5.53,6.06a4,4,0,0,0,3.89-2.66.39.39,0,0,1,.48.08,7.08,7.08,0,0,1-.89,2.55,3.26,3.26,0,0,0-.65.18,10.93,10.93,0,0,1-3,.43,8.09,8.09,0,0,1-4.63-1.25A6,6,0,0,1,60,41.05,6.2,6.2,0,0,1,62.3,36.11Z" transform="translate(0 0.01)"/><path class="cls-1" d="M80.58,43.37a3.8,3.8,0,0,1-3.93,4,3.67,3.67,0,0,1-3.81-3.83,3.91,3.91,0,0,1,4-4A3.71,3.71,0,0,1,80.58,43.37Zm-4-3.29c-1.23,0-2.14,1.17-2.14,3.22,0,1.69.76,3.52,2.4,3.52S79,45.1,79,43.67,78.35,40.08,76.58,40.08Z" transform="translate(0 0.01)"/><path class="cls-1" d="M83.15,41.77c0-.72,0-.82-.5-1.15l-.17-.11a.27.27,0,0,1,0-.34,10,10,0,0,0,1.86-.91.21.21,0,0,1,.2.13c0,.43,0,.71,0,.87a.19.19,0,0,0,.2.21,5.15,5.15,0,0,1,2.61-.95,2.06,2.06,0,0,1,2.17,2.31V45c0,1.34,0,1.53.71,1.62l.41.05a.33.33,0,0,1,0,.47c-.55,0-1.09-.06-1.74-.06s-1.23,0-1.74.06a.33.33,0,0,1,0-.47l.35-.05c.69-.11.71-.28.71-1.62V42.26a1.62,1.62,0,0,0-1.75-1.85,2,2,0,0,0-1.58.65,1.54,1.54,0,0,0-.28,1.12V45c0,1.34,0,1.51.7,1.62l.34.05a.33.33,0,0,1,0,.47c-.5,0-1-.06-1.69-.06s-1.23,0-1.75.06a.33.33,0,0,1,0-.47l.39-.05c.69-.09.71-.28.71-1.62Z" transform="translate(0 0.01)"/><path class="cls-1" d="M96.29,39.85a4.32,4.32,0,0,1,.3,1.51.33.33,0,0,1-.45.06,1.8,1.8,0,0,0-1.64-1.36,1.1,1.1,0,0,0-1.19,1.13c0,.77.78,1.18,1.44,1.55,1,.56,1.89,1.19,1.89,2.51s-1.3,2.12-2.68,2.12a3.12,3.12,0,0,1-2-.55,5.48,5.48,0,0,1-.22-1.88.31.31,0,0,1,.43,0c.31,1,.91,1.91,2,1.91a1.15,1.15,0,0,0,1.25-1.19c0-.85-.75-1.32-1.44-1.71-1.07-.61-1.84-1.26-1.84-2.29,0-1.36,1.12-2.12,2.53-2.12A3.44,3.44,0,0,1,96.29,39.85Z" transform="translate(0 0.01)"/><path class="cls-1" d="M99.72,42.35c-.49,0-.51,0-.51.5,0,1.88,1.1,3.48,3.09,3.48a2,2,0,0,0,1.71-.91.25.25,0,0,1,.34.22,3.23,3.23,0,0,1-2.92,1.73,3.35,3.35,0,0,1-2.7-1.22A4,4,0,0,1,98,43.73c0-2.29,1.51-4.21,3.74-4.21a2.44,2.44,0,0,1,2.64,2.21,1.34,1.34,0,0,1-.07.49c-.06.11-.32.13-1.1.13Zm1.15-.56c1.38,0,1.79-.07,1.94-.19s.11-.11.11-.35c0-.52-.36-1.17-1.44-1.17a2.18,2.18,0,0,0-2.06,1.62s0,.09.13.09Z" transform="translate(0 0.01)"/><path class="cls-1" d="M106.62,41.77c0-.72,0-.82-.5-1.15l-.17-.11a.27.27,0,0,1,0-.34,12.83,12.83,0,0,0,1.92-.91.17.17,0,0,1,.18.11c0,.65-.07,1.55-.07,2.31v4.5a8,8,0,0,1-.39,2.91,6.57,6.57,0,0,1-2.83,3,.31.31,0,0,1-.26-.43,3.54,3.54,0,0,0,1.1-.84c.67-.78,1-2.12,1-4.39Zm1.55-5.3a1,1,0,0,1-1.94,0,1,1,0,0,1,1-1A.94.94,0,0,1,108.17,36.47Z" transform="translate(0 0.01)"/><path class="cls-1" d="M118,43.37a3.8,3.8,0,0,1-3.93,4,3.68,3.68,0,0,1-3.82-3.83,3.91,3.91,0,0,1,4-4A3.72,3.72,0,0,1,118,43.37Zm-4-3.29c-1.22,0-2.14,1.17-2.14,3.22,0,1.69.77,3.52,2.41,3.52s2.14-1.72,2.14-3.15S115.72,40.08,114,40.08Z" transform="translate(0 0.01)"/><path class="cls-1" d="M131.34,44.4c0,1.47,0,2.16.54,2.16a3.25,3.25,0,0,0,.8-.19c.13,0,.15.5,0,.59a15.56,15.56,0,0,0-2.46.6c-.11,0-.2-.06-.2-.15v-.32a1.9,1.9,0,0,0,0-.57h-.07a3.86,3.86,0,0,1-2.35.85,3.42,3.42,0,0,1-3.44-3.57,4.22,4.22,0,0,1,4.5-4.28,3.61,3.61,0,0,1,1.25.17c.09,0,.11-.11.11-.26V36.62c0-1.1,0-1.21-.58-1.55L129.2,35c-.09-.06-.09-.32,0-.37a13.92,13.92,0,0,0,2-.78.21.21,0,0,1,.19.11c0,.56-.06,1.49-.06,2.31ZM130,41.6a1.07,1.07,0,0,0-.2-.72,2,2,0,0,0-1.57-.78c-1.69,0-2.56,1.47-2.56,3.09s.94,3.29,2.77,3.29a2.27,2.27,0,0,0,1.43-.52,1.14,1.14,0,0,0,.13-.69Z" transform="translate(0 0.01)"/><path class="cls-1" d="M135.43,42.35c-.48,0-.5,0-.5.5,0,1.88,1.1,3.48,3.09,3.48a2,2,0,0,0,1.71-.91.25.25,0,0,1,.34.22,3.24,3.24,0,0,1-2.92,1.73,3.35,3.35,0,0,1-2.7-1.22,4,4,0,0,1-.78-2.42c0-2.29,1.5-4.21,3.74-4.21a2.44,2.44,0,0,1,2.64,2.21,1.34,1.34,0,0,1-.07.49c-.06.11-.32.13-1.1.13Zm1.16-.56c1.38,0,1.79-.07,1.93-.19s.12-.11.12-.35c0-.52-.36-1.17-1.44-1.17a2.18,2.18,0,0,0-2.06,1.62s0,.09.13.09Z" transform="translate(0 0.01)"/><path class="cls-1" d="M148.24,45c0,1.34,0,1.53.71,1.62l.44.05a.33.33,0,0,1,0,.47c-.62,0-1.16-.06-1.81-.06s-1.23,0-1.78.06a.33.33,0,0,1,0-.47l.43-.05c.68-.09.7-.28.7-1.62V36.62c0-1.1,0-1.21-.57-1.55L146.1,35c-.09-.06-.09-.32,0-.37a13.49,13.49,0,0,0,2-.78.21.21,0,0,1,.19.11c0,.56-.06,1.49-.06,2.31Z" transform="translate(0 0.01)"/><path class="cls-1" d="M154.33,43.26c.28-.09.31-.26.31-.54l0-.86c0-.68-.2-1.61-1.36-1.61-.52,0-1.15.26-1.19.83,0,.3,0,.52-.18.64a2.05,2.05,0,0,1-1.06.35.24.24,0,0,1-.27-.26c0-1,2.11-2.29,3.47-2.29s2,.78,1.93,2.18l-.11,3.24c0,.85.13,1.62.86,1.62a1,1,0,0,0,.46-.12c.09,0,.19-.13.24-.13s.13.11.13.25a2,2,0,0,1-1.56.81,1.48,1.48,0,0,1-1.21-.57c-.07-.11-.19-.26-.3-.26a2.62,2.62,0,0,0-.72.37,2.79,2.79,0,0,1-1.34.46,2,2,0,0,1-1.31-.42,1.77,1.77,0,0,1-.57-1.31c0-.72.35-1.15,1.54-1.58Zm-1.16,3.28a2.08,2.08,0,0,0,1.14-.47c.22-.22.22-.48.24-.87l0-1.1c0-.21-.08-.24-.19-.24a3.43,3.43,0,0,0-.76.18c-1.1.37-1.64.65-1.64,1.38A1.12,1.12,0,0,0,153.17,46.54Z" transform="translate(0 0.01)"/><path class="cls-1" d="M169.51,42.14c.43.88.84,1.73,1.29,2.55h0c.5-.87,1-1.84,1.43-2.79L174,38.35c.84-1.7,1.38-2.72,1.41-3.58a13.25,13.25,0,0,0,1.4.06c.46,0,1.08,0,1.66-.06a.39.39,0,0,1,0,.47l-.39,0c-1.17.11-1.32.46-1.3,1.76,0,2,.06,5.42.2,8.1.06.93,0,1.43.92,1.51l.59.05a.35.35,0,0,1,0,.47c-.77,0-1.53-.06-2.2-.06s-1.49,0-2.25.06a.35.35,0,0,1,0-.47l.54-.05c.91-.09.91-.39.91-1.58l0-7.76h0c-.13.2-.84,1.69-1.21,2.41L172.49,43c-.83,1.64-1.67,3.39-2,4.24a.19.19,0,0,1-.18.08.22.22,0,0,1-.17-.08c-.32-1-1.21-2.81-1.64-3.72l-1.67-3.59c-.39-.86-.79-1.82-1.19-2.68h0c-.08,1.16-.13,2.23-.19,3.31s-.13,2.8-.13,4.38c0,1.37.11,1.67.84,1.73l.71.05c.13.12.11.41,0,.47-.64,0-1.36-.06-2.07-.06s-1.26,0-1.9.06a.36.36,0,0,1,0-.47l.41-.05c.78-.11,1-.23,1.15-1.53s.2-2.25.32-4.09c.09-1.55.16-3.13.2-4.15,0-1.18-.11-1.45-1.25-1.6l-.29,0a.35.35,0,0,1,.07-.47c.56,0,1,.06,1.47.06a15.12,15.12,0,0,0,1.55-.06,7.15,7.15,0,0,0,1,3.08Z" transform="translate(0 0.01)"/><path class="cls-1" d="M183.53,43.26c.28-.09.32-.26.32-.54l0-.86c0-.68-.21-1.61-1.36-1.61-.52,0-1.16.26-1.19.83,0,.3,0,.52-.19.64a2,2,0,0,1-1.06.35.23.23,0,0,1-.26-.26c0-1,2.1-2.29,3.46-2.29s2,.78,1.94,2.18l-.12,3.24c0,.85.13,1.62.86,1.62a1,1,0,0,0,.47-.12c.09,0,.18-.13.24-.13s.13.11.13.25a2,2,0,0,1-1.57.81A1.49,1.49,0,0,1,184,46.8c-.07-.11-.18-.26-.29-.26a2.62,2.62,0,0,0-.73.37,2.79,2.79,0,0,1-1.34.46,2,2,0,0,1-1.3-.42,1.78,1.78,0,0,1-.58-1.31c0-.72.36-1.15,1.55-1.58Zm-1.15,3.28a2,2,0,0,0,1.13-.47c.23-.22.23-.48.24-.87l0-1.1c0-.21-.07-.24-.18-.24a3.48,3.48,0,0,0-.77.18c-1.1.37-1.64.65-1.64,1.38A1.13,1.13,0,0,0,182.38,46.54Z" transform="translate(0 0.01)"/><path class="cls-1" d="M195,40.19c.21.09.17.73-.11.76h-1.34a7.63,7.63,0,0,1,0,.95,2.86,2.86,0,0,1-3.13,3c-.33,0-.59,0-.82,0s-.82.48-.82,1,.43.78,1.31.78c.63,0,1.39,0,2.21,0,1,0,2.61.18,2.61,2,0,2-2.22,3.52-4.64,3.52s-3.09-1.23-3.09-2.16a1.05,1.05,0,0,1,.21-.69c.32-.33.84-.82,1.26-1.25.17-.16.32-.33.15-.44a1.74,1.74,0,0,1-1.36-1.47c0-.1.08-.17.28-.32a5.76,5.76,0,0,0,1-.85.84.84,0,0,0,.19-.36,2.51,2.51,0,0,1-1.4-2.25,2.91,2.91,0,0,1,3-2.81,4.78,4.78,0,0,1,1.79.37,2.26,2.26,0,0,0,1.14.3Zm-3.89,7.52a4.29,4.29,0,0,0-1.6.2,1.93,1.93,0,0,0-.89,1.57c0,1,.8,1.84,2.49,1.84s2.76-.93,2.76-2-.78-1.62-2.12-1.62Zm1.16-5.32c0-1.27-.52-2.33-1.66-2.33-.89,0-1.56.82-1.56,2.08s.8,2.18,1.69,2.18S192.3,43.52,192.3,42.39Z" transform="translate(0 0.01)"/><path class="cls-1" d="M197,41.77c0-.72,0-.82-.5-1.15l-.17-.11a.27.27,0,0,1,0-.34,12.83,12.83,0,0,0,1.92-.91c.09,0,.17,0,.18.11,0,.65-.07,1.55-.07,2.31V45c0,1.34,0,1.53.71,1.62l.39.05a.33.33,0,0,1,0,.47c-.56,0-1.1-.06-1.75-.06s-1.23,0-1.75.06a.33.33,0,0,1,0-.47l.4-.05c.68-.09.7-.28.7-1.62Zm1.55-5.3a1,1,0,0,1-1.94,0,1,1,0,0,1,1-1A.94.94,0,0,1,198.5,36.47Z" transform="translate(0 0.01)"/><path class="cls-1" d="M205.1,39.85a4.32,4.32,0,0,1,.3,1.51.33.33,0,0,1-.45.06,1.8,1.8,0,0,0-1.63-1.36,1.09,1.09,0,0,0-1.19,1.13c0,.77.78,1.18,1.43,1.55,1,.56,1.9,1.19,1.9,2.51s-1.31,2.12-2.68,2.12a3.09,3.09,0,0,1-2-.55,5.71,5.71,0,0,1-.23-1.88.31.31,0,0,1,.43,0c.32,1,.91,1.91,2,1.91a1.15,1.15,0,0,0,1.25-1.19c0-.85-.74-1.32-1.43-1.71-1.08-.61-1.85-1.26-1.85-2.29,0-1.36,1.12-2.12,2.54-2.12A3.36,3.36,0,0,1,205.1,39.85Z" transform="translate(0 0.01)"/><path class="cls-1" d="M209.46,40.56c-.32,0-.33.06-.33.45v3.48c0,1.08.13,2.07,1.35,2.07a1.36,1.36,0,0,0,.51-.1c.16-.05.41-.26.46-.26s.22.21.19.32a2.6,2.6,0,0,1-2,.85c-1.6,0-1.93-.89-1.93-2V41.1c0-.5,0-.54-.39-.54h-.52a.3.3,0,0,1-.06-.39,3.72,3.72,0,0,0,1.19-.58,4.42,4.42,0,0,0,.78-1.09c.1,0,.32,0,.39.09v.84c0,.33,0,.35.34.35h2.06a.58.58,0,0,1,0,.78Z" transform="translate(0 0.01)"/><path class="cls-1" d="M213.74,41.77c0-.72,0-.82-.5-1.15l-.17-.11a.27.27,0,0,1,0-.34,14.6,14.6,0,0,0,1.88-.91c.09,0,.15.06.15.13v1.08c0,.09,0,.15,0,.17a3.8,3.8,0,0,1,2.05-1.12.77.77,0,0,1,.84.74.82.82,0,0,1-.8.86.74.74,0,0,1-.41-.13,1.51,1.51,0,0,0-.82-.3.83.83,0,0,0-.67.37,2.8,2.8,0,0,0-.24,1.44V45c0,1.34,0,1.56.74,1.62l.67.05a.33.33,0,0,1,0,.47c-.88,0-1.42-.06-2.07-.06s-1.23,0-1.71.06a.33.33,0,0,1,0-.47l.35-.05c.69-.11.71-.28.71-1.62Z" transform="translate(0 0.01)"/><path class="cls-1" d="M222.6,43.26c.28-.09.32-.26.32-.54v-.86c0-.68-.2-1.61-1.35-1.61-.52,0-1.16.26-1.19.83,0,.3,0,.52-.19.64a2,2,0,0,1-1.06.35.23.23,0,0,1-.26-.26c0-1,2.1-2.29,3.46-2.29s2,.78,1.93,2.18l-.11,3.24c0,.85.13,1.62.86,1.62a1,1,0,0,0,.46-.12c.1,0,.19-.13.25-.13s.13.11.13.25a2,2,0,0,1-1.57.81,1.49,1.49,0,0,1-1.21-.57c-.07-.11-.18-.26-.29-.26a2.62,2.62,0,0,0-.73.37,2.79,2.79,0,0,1-1.34.46,2,2,0,0,1-1.3-.42,1.74,1.74,0,0,1-.58-1.31c0-.72.35-1.15,1.55-1.58Zm-1.15,3.28a2,2,0,0,0,1.13-.47c.22-.22.22-.48.24-.87l0-1.1c0-.21-.07-.24-.19-.24a3.56,3.56,0,0,0-.76.18c-1.1.37-1.64.65-1.64,1.38A1.13,1.13,0,0,0,221.45,46.54Z" transform="translate(0 0.01)"/><path class="cls-1" d="M229.15,40.56c-.31,0-.33.06-.33.45v3.48c0,1.08.13,2.07,1.36,2.07a1.35,1.35,0,0,0,.5-.1c.17-.05.41-.26.46-.26s.23.21.19.32a2.59,2.59,0,0,1-2,.85c-1.61,0-1.94-.89-1.94-2V41.1c0-.5,0-.54-.39-.54h-.52a.32.32,0,0,1-.06-.39,3.61,3.61,0,0,0,1.19-.58,4.42,4.42,0,0,0,.78-1.09.36.36,0,0,1,.4.09v.84c0,.33,0,.35.33.35h2.07a.59.59,0,0,1,0,.78Z" transform="translate(0 0.01)"/><path class="cls-1" d="M234.57,44.38c0,1.28.31,2.14,1.73,2.14a2.47,2.47,0,0,0,1.51-.56,1.29,1.29,0,0,0,.37-1.08V41.83c0-1.21-.13-1.25-.69-1.47l-.24-.1a.25.25,0,0,1,0-.41,7,7,0,0,0,2.17-.33c.1,0,.15.06.17.13,0,.35-.05.93-.05,1.62V44.4c0,1.47.05,2,.57,2a3.23,3.23,0,0,0,.73-.09c.11.09.13.47,0,.54a9.92,9.92,0,0,0-2.44.69.27.27,0,0,1-.22-.13v-.76c0-.17-.06-.26-.17-.26a4.9,4.9,0,0,1-2.57,1c-1.63,0-2.25-.81-2.25-2.32V41.94c0-1.17,0-1.34-.56-1.58l-.22-.1a.28.28,0,0,1,0-.41,6.35,6.35,0,0,0,2-.33c.11,0,.17.06.18.13,0,.32-.05.71-.05,1.62Z" transform="translate(0 0.01)"/><path class="cls-1" d="M243.06,41.77c0-.72,0-.82-.51-1.15l-.16-.11a.25.25,0,0,1,0-.34,14.51,14.51,0,0,0,1.87-.91c.1,0,.15.06.15.13v1.08c0,.09,0,.15.06.17a3.76,3.76,0,0,1,2-1.12.77.77,0,0,1,.83.74.82.82,0,0,1-.8.86.77.77,0,0,1-.41-.13,1.45,1.45,0,0,0-.81-.3.82.82,0,0,0-.67.37,2.79,2.79,0,0,0-.25,1.44V45c0,1.34,0,1.56.75,1.62l.67.05a.33.33,0,0,1,0,.47c-.87,0-1.41-.06-2.06-.06s-1.23,0-1.72.06a.33.33,0,0,1,0-.47l.35-.05c.69-.11.71-.28.71-1.62Z" transform="translate(0 0.01)"/><path class="cls-1" d="M251.92,43.26c.28-.09.31-.26.31-.54l0-.86c0-.68-.2-1.61-1.36-1.61-.52,0-1.15.26-1.19.83,0,.3,0,.52-.19.64a2,2,0,0,1-1.06.35.24.24,0,0,1-.26-.26c0-1,2.11-2.29,3.46-2.29s2,.78,1.94,2.18l-.11,3.24c0,.85.13,1.62.86,1.62a1,1,0,0,0,.46-.12c.09,0,.19-.13.24-.13s.13.11.13.25a2,2,0,0,1-1.56.81,1.48,1.48,0,0,1-1.21-.57c-.07-.11-.19-.26-.3-.26a2.62,2.62,0,0,0-.72.37,2.79,2.79,0,0,1-1.34.46,2,2,0,0,1-1.31-.42,1.77,1.77,0,0,1-.57-1.31c0-.72.35-1.15,1.54-1.58Zm-1.16,3.28a2.11,2.11,0,0,0,1.14-.47c.22-.22.22-.48.24-.87l0-1.1c0-.21-.08-.24-.19-.24a3.43,3.43,0,0,0-.76.18c-1.1.37-1.64.65-1.64,1.38A1.12,1.12,0,0,0,250.76,46.54Z" transform="translate(0 0.01)"/><path class="cls-1" d="M24.7,9.69a.27.27,0,0,0-.28.28A.28.28,0,1,0,25,10a.27.27,0,0,0-.28-.28" transform="translate(0 0.01)"/><path class="cls-1" d="M39.12,14.1h0A13.83,13.83,0,0,1,34.8,13c-.56-.21-1.14-.43-1.71-.6a11.29,11.29,0,0,0-3.07-.6c-.25,0-.47,0-.71,0a3.05,3.05,0,0,0-2.08.6,16,16,0,0,0-.64-2.22c-.28-.71-.7-1.55-1.45-1.78a1.18,1.18,0,0,0-.37,0,2.2,2.2,0,0,0-1.6,1.06l-.12.19c-.33.47-.49.71-.44.92s.32.39.93.74c.26.15.31.54.34.82v0A7.55,7.55,0,0,1,24,13.3a6.25,6.25,0,0,0-3.37-1.47,5.47,5.47,0,0,0-1-.09,9.32,9.32,0,0,0-3.6.9c-.5.21-1,.45-1.49.69a21.41,21.41,0,0,1-2.92,1.22,7.5,7.5,0,0,1-1,.24h-.08c-.15,0-.41.12-.46.35s0,.39.3.64a5.41,5.41,0,0,0,2.73.62l.71,0c.33,0,.67-.07,1-.11a11.27,11.27,0,0,1,1.52-.13,4.22,4.22,0,0,1,.92.09c.82.19,1.31,1,1.73,1.72.11.18.21.35.32.5h0a2.4,2.4,0,0,1,.51,1.18c0,.37-.52.66-.88.89a2.47,2.47,0,0,0-.26.16l-.4.26c-.82.52-1.94,1.24-1.81,2.2a1.07,1.07,0,0,0,.93.91h.13a2.13,2.13,0,0,0,.95-.31,2.64,2.64,0,0,1,.38-.18A3.06,3.06,0,0,1,20,23.35a3.13,3.13,0,0,1,1.89.66,5.16,5.16,0,0,1,.54.5A4.78,4.78,0,0,0,23,25a1.4,1.4,0,0,0,.76.25.46.46,0,0,0,.5-.37,7.12,7.12,0,0,0,.09-1.46,11.53,11.53,0,0,1,0-1.17c0-.23.09-.7.4-.85a.87.87,0,0,1,.35-.07,3.75,3.75,0,0,1,.47.05,2.35,2.35,0,0,0,.63.05,2.53,2.53,0,0,0,1.93-1.91,1,1,0,0,1,.72-.6,1.83,1.83,0,0,0,1-.81l.2-.25A2.58,2.58,0,0,1,32.2,17l.56,0,.58.07a12.11,12.11,0,0,0,1.46.11A4.62,4.62,0,0,0,36.23,17a10.08,10.08,0,0,0,3-1.84l.13-.11c.26-.21.31-.34.25-.58s-.39-.31-.51-.32M19.73,17.45A8,8,0,0,0,19,16.36a3.3,3.3,0,0,0-2.82-1.15,13.53,13.53,0,0,0-1.67.12,15.26,15.26,0,0,1-1.64.12,4.46,4.46,0,0,1-.77-.06,23,23,0,0,0,2.7-1.15A20.81,20.81,0,0,1,17.71,13a6.6,6.6,0,0,1,1.94-.29,5.85,5.85,0,0,1,3.23.92,1.37,1.37,0,0,1,.72,1.77,6.92,6.92,0,0,1-1.4,2.31l-.15.17c-.28.34-.76.91-1.16.91a.42.42,0,0,1-.33-.16,7.46,7.46,0,0,1-.83-1.19m7.61,1.1a2.56,2.56,0,0,1-.75,1.58,1.7,1.7,0,0,1-1.27.4h-.55a1.09,1.09,0,0,0-.82.33c-.62.63-.61,2-.6,2.93v.3L23.29,24a5,5,0,0,0-2.65-1.59,3.07,3.07,0,0,0-.53-.05,5,5,0,0,0-1.06.13,5.41,5.41,0,0,0-.87.34l-.33.14a1.25,1.25,0,0,1-.42.11h-.07a.06.06,0,0,1,0-.06c.11-.38.52-.65.84-.86l.09-.06c.83-.56,1.6-1.12,2.36-1.72a11,11,0,0,0,3.71-4.29,7.6,7.6,0,0,0,.54-3.45v-.07a4.61,4.61,0,0,0-.27-1.48,1.56,1.56,0,0,0-.78-.74l-.17-.1c.15-.28.56-1,1-1a.7.7,0,0,1,.53.33,7.53,7.53,0,0,1,1,2.49c0,.14.08.29.13.44.44,1.57,1.18,4.18.94,6m9.57-3a4.25,4.25,0,0,1-2.09.64h-.06a10.54,10.54,0,0,1-1.26-.12c-.36-.05-.73-.09-1.09-.11a3.8,3.8,0,0,0-2.15.43,3.9,3.9,0,0,0-.92.89,3.86,3.86,0,0,1-.62.66.41.41,0,0,1-.25.13h0c-.1,0-.11-.07-.1-.22v-.1c0-.34-.07-.67-.11-1l0-.19c-.08-.56-.17-1.16-.3-1.75,0-.1-.06-.22-.1-.35-.17-.52-.37-1.16,0-1.49a1.89,1.89,0,0,1,.94-.27l.65,0h.13a9,9,0,0,1,1.15.08,12.48,12.48,0,0,1,2.35.58c.49.16,1,.34,1.45.52a20.27,20.27,0,0,0,3.4,1,8.64,8.64,0,0,1-1,.66" transform="translate(0 0.01)"/><path class="cls-1" d="M49.07,24.3a34.83,34.83,0,0,0-1.54-6.11A32.71,32.71,0,0,0,45,12.71a30,30,0,0,0-2.67-3.85,26.5,26.5,0,0,0-4.28-4.19,24,24,0,0,0-5-3A21.29,21.29,0,0,0,27.45.16a20.9,20.9,0,0,0-5.91.08A21.11,21.11,0,0,0,16,1.92,23.5,23.5,0,0,0,11,5,26.73,26.73,0,0,0,6.86,9.26,29.79,29.79,0,0,0,3.7,14.2a33.12,33.12,0,0,0-2.26,5.68A34.93,34.93,0,0,0,.2,26.13a37.54,37.54,0,0,0-.1,6.62,35.56,35.56,0,0,0,1,6.34,33.11,33.11,0,0,0,2.1,5.79,30.6,30.6,0,0,0,3,5.08,51.22,51.22,0,0,0,4.66,4.94A21.81,21.81,0,0,0,24.76,60h0a20.69,20.69,0,0,0,5.8-.83,22.4,22.4,0,0,0,5.3-2.34,25.12,25.12,0,0,0,4.63-3.66,27.72,27.72,0,0,0,3.71-4.59A31,31,0,0,0,47,43.29a33.47,33.47,0,0,0,1.81-5.95,35.24,35.24,0,0,0,.74-6.47,36.11,36.11,0,0,0-.44-6.57M5.24,38.64H4.61l.56-2.14c.06-.16.09-.16.11-.09,0,.77,0,1.53,0,2.23m.31-5.84-1.27-.58c-.07,0-.06-.06,0-.06H7c.08,0,.09,0,0,.06l-1.21.58a.39.39,0,0,1-.26,0M4,31.6l1.42-1c0,.32,0,.66,0,1Zm.47-3.4H6.86c.06,0,.07,0,0,.05l-1.08.51a.39.39,0,0,1-.24,0l-1.13-.52c-.06,0-.06-.05,0-.05m-.3-.5,1.3-.86c0,.27,0,.56,0,.86Zm1.76-.84,1.29.84H5.9c0-.28,0-.57,0-.84M6,30.6l1.43,1H6c0-.34,0-.68,0-1m.13,8c0-.7,0-1.46,0-2.22,0-.06,0-.1.09.06l.57,2.16Zm18.68,19.2a19.09,19.09,0,0,1-10.48-3.17,47.67,47.67,0,0,1,7.25.67c2.42.35,4.82.76,7.25,1,.93.1,1.87.17,2.8.21a18.66,18.66,0,0,1-6.82,1.29m11.06-3.57a33.91,33.91,0,0,1-7.19-.12c-2.38-.26-4.75-.66-7.13-1a49.24,49.24,0,0,0-7.38-.65c-.84,0-1.68,0-2.51.13a24,24,0,0,1-2.25-2.26,34.93,34.93,0,0,1,7.51-.18c2.5.19,5,.55,7.48.92l3.75.54c.62.08,3.09.27,3.7.27a46.74,46.74,0,0,0,7.47-.59,22.76,22.76,0,0,1-3.45,2.94m5.69-5.6a39.1,39.1,0,0,1-7.31,1,34.91,34.91,0,0,1-3.69,0c-1.25-.06-2.48-.26-3.71-.44-2.48-.35-5-.75-7.45-1a46.64,46.64,0,0,0-7.47-.3,28.88,28.88,0,0,0-4.05.48c-.46-.64-.89-1.3-1.3-2a40.53,40.53,0,0,1,6.68-.83A41.91,41.91,0,0,1,20,46c2.18.29,4.34.69,6.52,1a44.77,44.77,0,0,0,6,.45h0a39.5,39.5,0,0,0,6.24-.52c1.5-.25,3-.55,4.47-.94a28.13,28.13,0,0,1-1.76,2.72M8.27,41a2.38,2.38,0,0,1-1.12-2l3.23-7.61c.07-.13.1-.09.08,0Zm2.14-7.18c-.05,3.41-.09,6.58-.11,8.1a5.26,5.26,0,0,1-1.67-.71l1.71-7.54c0-.08.06,0,.07.15m-.85-6.67H12c.07,0,.07,0,0,0l-1.09.52a.28.28,0,0,1-.22,0l-1.14-.52c-.06,0,0,0,0,0m-.31-.49,1.28-.85c0,.27,0,.56,0,.85ZM11,25.85l1.27.83H11.05c0-.29,0-.57,0-.83M13.63,37c0,1.64-.08,3.27-.1,4.53l0,0-1.09-4.7L13,35.48Zm-.43-2,.43-1c0-.07.07-.05.08,0,0,.66,0,1.37-.05,2.08ZM12.13,37.5l1,4.28a5.43,5.43,0,0,1-1.22.29c-.14,0-.28,0-.42,0l-.26,0c0-.58,0-1.45,0-2.52Zm-.9,1.1c0-1.42-.05-3.07-.07-4.78,0-.15,0-.24.11,0l.71,3Zm1-2.41-1.1-4.8c0-.1,0-.14.08,0L12.76,35Zm2.12,1.49V37c0-1.25-.06-1.83-.09-3,0-.09,0-.14.1,0l1.92,4.81a4,4,0,0,1-.86,1.36Zm.76,2.75a4.85,4.85,0,0,1-.67.61c0-.66,0-1.5-.06-2.27Zm2-1.84,2.2-4.73c0,1.35-.08,3.3-.12,4.73h-.9c-.33,0-.86,0-1.18,0m15.77-6.06H36c.08,0,.09,0,0,.06l-1.45.69a.39.39,0,0,1-.3,0l-1.49-.68c-.08,0-.08-.07,0-.07m-.37-.63,1.67-1.19c0,.35,0,1.15,0,1.19Zm.6-4.69.06,0h2.71s0,0,0,0l-1.19.56a.28.28,0,0,1-.25,0l-1.24-.56c-.05,0-.06,0-.05,0m-.28-.58,1.42-1c0,.33,0,.67,0,1Zm1.91-1,1.44,1H34.73c0-.34,0-.67,0-1m.07,5.07,1.66,1.19H34.81l0-1.19m4.82-1.28h2.73c.07,0,.08,0,0,.06l-1.23.58a.36.36,0,0,1-.25,0l-1.27-.58c-.07,0-.06-.06,0-.06m-.34-.56,1.43-1c0,.34,0,.67,0,1Zm2-1,1.44,1H41.26c0-.34,0-.67,0-1m-.63,5.84c0,3.3-.1,6.84-.13,9.34a5.21,5.21,0,0,1-2.11.29l1.35-6.05.8-3.55c0-.09.08-.14.09,0m-.18-1.41L38.08,42.78l-1-2.82v0l3.23-7.75c.09-.15.19-.25.15.11m-2.61,11a3.92,3.92,0,0,1-1.78-.92l.77-1.83Zm-2.07-1.2a5.55,5.55,0,0,1-.83-1.17c0-1.59,0-4-.09-6.5l1.79,5.54Zm-3.9-1.28H28l5.81-6.56Zm2.22-6.39c0,1.48-.06,6.21-.06,6.39H32.27Zm7.25-.67c0-.1,0-.07.09,0l1.62,7a4.38,4.38,0,0,1-1.59,1.8c0-1.28-.12-8.82-.12-8.85m2.13,7-2-8.35c-.06-.5.07-.32.17-.14l3.64,8.49Zm3.24-4.07a31,31,0,0,1-1,3.92L41.3,30.24l1.92-.85a.27.27,0,0,0,0-.48l-2-1.41,0-3.18c.23,0,.45-.13.68-.17a2.64,2.64,0,0,1,.74.05,1.29,1.29,0,0,0,1.24-.32,3.46,3.46,0,0,1-1.33-.52,2.49,2.49,0,0,0-.71-.19,1.9,1.9,0,0,0-.75,0c0-.19,0-.38-.08-.58h-.1a17.27,17.27,0,0,0-.15,2.69c0,.62,0,1.24,0,1.85,0,.12,0,.22,0,.34l-2,1.4a.28.28,0,0,0,0,.49h0l1.86.85-3.75,9.13L34.92,33.5l2.14-1a.32.32,0,0,0,0-.56l-2.28-1.61c0-.74,0-1.54,0-2.24l2-.93h0a.27.27,0,0,0,0-.48l-2-1.43c0-1.44,0-2.88-.05-4.31a1.3,1.3,0,0,0,.33-.07,2.54,2.54,0,0,1,.37-.1,2.05,2.05,0,0,1,.74,0,1.55,1.55,0,0,0,.71,0,1.53,1.53,0,0,0,.57-.32A3.46,3.46,0,0,1,36.05,20a2.2,2.2,0,0,0-.71-.19,2,2,0,0,0-.74,0c0-.19-.05-.38-.09-.59h-.09a14.74,14.74,0,0,0-.16,2.4c0,.73,0,1.46,0,2.2,0,.47,0,.94,0,1.42l-2,1.42a.28.28,0,0,0,0,.49l2,.92h0c0,.7,0,1.52,0,2.25l-2.28,1.6a.31.31,0,0,0,0,.56l2.1,1-6.56,7.27c-.12,0-.94,0-1.06.15a.43.43,0,0,0-.1.52,1.11,1.11,0,0,0,.52.53,1.63,1.63,0,0,0,.35.17l0,0a5,5,0,0,0,3.12,2.88.06.06,0,0,1,0,.08v0l-.07,0c-2.41-.15-4.79-.55-7.17-.92-.91-.15-1.82-.29-2.73-.4-.61-.08-1.23-.16-1.84-.27a.21.21,0,0,1-.11-.06h0v0h0l0,0h0A5.72,5.72,0,0,0,22.5,40l.13-.06.27-.14a1.17,1.17,0,0,0,.51-.52.44.44,0,0,0-.11-.53c-.12-.16-1.07-.15-1.07-.15h-.17c0-.52,0-1.87,0-2.75a.58.58,0,0,0,.32,0,2.24,2.24,0,0,1,.37-.1,1.67,1.67,0,0,1,.77,0,1.94,1.94,0,0,0,.76,0,1.61,1.61,0,0,0,.59-.32,4,4,0,0,1-1.36-.54,2,2,0,0,0-.74-.18,1.4,1.4,0,0,0-.76.06c0-.21,0-.39-.06-.53h-.09c-.13.75-.14,3.36-.14,4.36H20c-.06-1.83-.14-4.29-.18-5.85l1.46-3.13c.2.09.43.1.64.18a1.8,1.8,0,0,1,.59.36,2,2,0,0,0,.58.37,1.59,1.59,0,0,0,.72,0,3.43,3.43,0,0,1-.88-1.08,2.2,2.2,0,0,0-.5-.51,1.93,1.93,0,0,0-.69-.37,2.86,2.86,0,0,0,.14-.51s0-.05,0-.08h0c-.06,0-.08.05-.13.1a4,4,0,0,0-.33.53L19.79,32q0-.8,0-1.59a13,13,0,0,0-.15-2h-.09a13.81,13.81,0,0,0-.15,2.41c0,.71,0,1.44-.06,2.16l-2.68,5.55-2.4-5.88c0-.73,0-1.46,0-2.19A15.75,15.75,0,0,0,14,28h-.1a18,18,0,0,0-.15,2.43c0,.74,0,1.48,0,2.22L13,34.45,11.1,30.08c0-.73,0-1.45,0-2.14l1.71-.81a.23.23,0,0,0,0-.42L11,25.45c0-1.5,0-3,0-4.51a1.23,1.23,0,0,0,.32-.07,2.54,2.54,0,0,1,.37-.1,2,2,0,0,1,.74,0,1.59,1.59,0,0,0,.72,0,1.61,1.61,0,0,0,.57-.32A3.29,3.29,0,0,1,12.39,20a2.44,2.44,0,0,0-.7-.2,2.05,2.05,0,0,0-.78,0c0-.2,0-.4-.07-.59h-.1a17.57,17.57,0,0,0-.16,2.9l0,2.81c0,.18,0,.35,0,.52L8.79,26.7a.24.24,0,0,0,0,.43l1.71.81c0,.78,0,2,0,2.14L7,38.25l-.51-1.88h.67a1,1,0,0,0,.3-.07c.06,0,.22-.07.22-.17S7.53,36,7.47,36a.89.89,0,0,0-.32-.08H6.36L6,34.61c0-.53,0-1.07,0-1.59l1.92-.9a.27.27,0,0,0,0-.48l-2-1.4c0-.38,0-.91,0-1.26l1.72-.81a.25.25,0,0,0,0-.44L5.88,26.46c0-1.25,0-2.1,0-2.19a2.16,2.16,0,0,0,.61-.14,1.78,1.78,0,0,1,.65,0,1.48,1.48,0,0,0,.63,0,1.38,1.38,0,0,0,.53-.29,3.16,3.16,0,0,1-1.18-.46,2,2,0,0,0-.64-.17,1.47,1.47,0,0,0-.66,0c0-.17,0-.33-.09-.52H5.62a11.15,11.15,0,0,0-.16,2.08c0,.6,0,1,0,1.61L3.67,27.73a.24.24,0,0,0,0,.43L5.4,29c0,.36,0,.88,0,1.26L3.44,31.63a.27.27,0,0,0,0,.48l1.9.91c0,.52,0,1,0,1.57L5,35.9h-.8a.73.73,0,0,0-.29.07c-.07,0-.22.07-.22.16s.14.14.2.16a.89.89,0,0,0,.31.08h.68l-.6,2.27h-1a32.37,32.37,0,0,1-1.06-6.7,34.16,34.16,0,0,1,.28-6.78A32.44,32.44,0,0,1,4,19,29.07,29.07,0,0,1,6.51,13.6,25.63,25.63,0,0,1,8.27,11a12.67,12.67,0,0,0,6,.07,18.61,18.61,0,0,1,6-.29l.59.11a7.91,7.91,0,0,1,.22-1,17.57,17.57,0,0,0-6.74-.52,7.15,7.15,0,0,1-4.16-.62,21.2,21.2,0,0,1,2.48-2.25A8.36,8.36,0,0,0,16,7.74c.76.14,1.54.19,2.29.37a19.27,19.27,0,0,1,2.28.66,8,8,0,0,1,.77.33,5.69,5.69,0,0,1,.54-.87l-.5-.31a13.24,13.24,0,0,0-2.93-1.16,12,12,0,0,1-2-.78A6.15,6.15,0,0,1,15,4.89a20.3,20.3,0,0,1,2.93-1.45c.65.93,1.88,1.45,2.71,2.17a9.48,9.48,0,0,1,1.86,2.05,3.07,3.07,0,0,1,.89-.5,9.81,9.81,0,0,0-1.95-3,3.73,3.73,0,0,1-1.07-1.52,17.58,17.58,0,0,1,3.35-.5L24.25,7a4.37,4.37,0,0,1,.51,0s.19,0,.51,0l.54-4.77a18.49,18.49,0,0,1,2.33.27c.58.11,1,.22,1,.22A3.81,3.81,0,0,1,28.1,4.19a9.62,9.62,0,0,0-1.93,3,3.12,3.12,0,0,1,.88.49,10.35,10.35,0,0,1,1.85-2,15.66,15.66,0,0,0,2.7-2.17c.17.07.9.35,2.07.95l.88.5A16.45,16.45,0,0,1,33.07,6a9.54,9.54,0,0,1-2,.78,13.39,13.39,0,0,0-2.95,1.16l-.49.31a4.3,4.3,0,0,1,.54.87c.18-.08.51-.24.77-.33a19.83,19.83,0,0,1,2.28-.66c.76-.18,1.53-.23,2.29-.37a8.42,8.42,0,0,0,3.37-1.26,26.78,26.78,0,0,1,2.48,2.25,7.2,7.2,0,0,1-4.16.62,17.68,17.68,0,0,0-6.74.51,4.8,4.8,0,0,1,.21,1l.63-.1a18.92,18.92,0,0,1,6,.31,12.86,12.86,0,0,0,6-.06c.26.33.51.68.75,1a29.1,29.1,0,0,1,2.82,5.17,32.46,32.46,0,0,1,1.84,5.92,34.65,34.65,0,0,1,.69,6.5,34.11,34.11,0,0,1-.65,7.06" transform="translate(0 0.01)"/></svg>